<mxfile host="Electron" modified="2024-05-04T08:44:06.127Z" agent="Mozilla/5.0 (X11; Linux x86_64) AppleWebKit/537.36 (KHTML, like Gecko) draw.io/24.2.5 Chrome/120.0.6099.109 Electron/28.1.0 Safari/537.36" etag="jNfsxvEvgyDVqnuJj4FR" version="24.2.5" type="device">
  <diagram name="Página-1" id="ce-FKCB1P0Mh1XtgBsD0">
    <mxGraphModel dx="792" dy="436" grid="1" gridSize="10" guides="1" tooltips="1" connect="1" arrows="1" fold="1" page="1" pageScale="1" pageWidth="827" pageHeight="583" math="0" shadow="0">
      <root>
        <mxCell id="0" />
        <mxCell id="1" parent="0" />
        <mxCell id="35S9LkvGi4-J7ZH6ce57-4" style="edgeStyle=orthogonalEdgeStyle;rounded=0;orthogonalLoop=1;jettySize=auto;html=1;exitX=1;exitY=0.5;exitDx=0;exitDy=0;entryX=0;entryY=0.5;entryDx=0;entryDy=0;" parent="1" source="LCIzZ4A6UkGF-yDOenK1-1" target="2WoFsreHTxvS4U5rfmcO-1" edge="1">
          <mxGeometry relative="1" as="geometry" />
        </mxCell>
        <mxCell id="LCIzZ4A6UkGF-yDOenK1-1" value="Inicio medida de fidelidad" style="ellipse;whiteSpace=wrap;html=1;fillColor=#f5f5f5;fontColor=#333333;strokeColor=none;" parent="1" vertex="1">
          <mxGeometry x="107.5" y="70" width="180" height="50" as="geometry" />
        </mxCell>
        <mxCell id="35S9LkvGi4-J7ZH6ce57-5" style="edgeStyle=orthogonalEdgeStyle;rounded=0;orthogonalLoop=1;jettySize=auto;html=1;exitX=0.5;exitY=1;exitDx=0;exitDy=0;entryX=0.5;entryY=0;entryDx=0;entryDy=0;" parent="1" source="2WoFsreHTxvS4U5rfmcO-1" target="2WoFsreHTxvS4U5rfmcO-2" edge="1">
          <mxGeometry relative="1" as="geometry" />
        </mxCell>
        <mxCell id="2WoFsreHTxvS4U5rfmcO-1" value="Enviar a RouteProtocol solicitud de entrelazamiento end to end" style="rounded=0;whiteSpace=wrap;html=1;fillColor=#dae8fc;strokeColor=none;" parent="1" vertex="1">
          <mxGeometry x="320" y="65" width="145" height="60" as="geometry" />
        </mxCell>
        <mxCell id="35S9LkvGi4-J7ZH6ce57-6" style="edgeStyle=orthogonalEdgeStyle;rounded=0;orthogonalLoop=1;jettySize=auto;html=1;exitX=1;exitY=0.5;exitDx=0;exitDy=0;entryX=0;entryY=0.5;entryDx=0;entryDy=0;" parent="1" source="2WoFsreHTxvS4U5rfmcO-2" target="35S9LkvGi4-J7ZH6ce57-1" edge="1">
          <mxGeometry relative="1" as="geometry" />
        </mxCell>
        <mxCell id="2WoFsreHTxvS4U5rfmcO-2" value="Esperar por notificación de fin de entrelazamiento" style="rounded=0;whiteSpace=wrap;html=1;fillColor=#dae8fc;strokeColor=none;" parent="1" vertex="1">
          <mxGeometry x="320" y="160" width="145" height="60" as="geometry" />
        </mxCell>
        <mxCell id="35S9LkvGi4-J7ZH6ce57-8" style="edgeStyle=orthogonalEdgeStyle;rounded=0;orthogonalLoop=1;jettySize=auto;html=1;exitX=0.5;exitY=1;exitDx=0;exitDy=0;entryX=0.5;entryY=0;entryDx=0;entryDy=0;" parent="1" source="35S9LkvGi4-J7ZH6ce57-1" target="35S9LkvGi4-J7ZH6ce57-2" edge="1">
          <mxGeometry relative="1" as="geometry" />
        </mxCell>
        <mxCell id="35S9LkvGi4-J7ZH6ce57-1" value="Medir fidelidad qubits en nodo origen y destino respecto de par perfecto" style="rounded=0;whiteSpace=wrap;html=1;fillColor=#dae8fc;strokeColor=none;" parent="1" vertex="1">
          <mxGeometry x="500" y="160" width="150" height="60" as="geometry" />
        </mxCell>
        <mxCell id="35S9LkvGi4-J7ZH6ce57-2" value="Registrar medida de fidelidad y tiempo" style="rounded=0;whiteSpace=wrap;html=1;fillColor=#dae8fc;strokeColor=none;" parent="1" vertex="1">
          <mxGeometry x="498.5" y="250" width="152.5" height="50" as="geometry" />
        </mxCell>
      </root>
    </mxGraphModel>
  </diagram>
</mxfile>
